<svg xmlns="http://www.w3.org/2000/svg" viewBox="0 0 32 32">
<circle fill="#3f91cb" cx="16" cy="16" r="16"/>
<path fill="#fff" fillRule="evenodd" d="M16,7.26a9,9,0,0,0-2.82,17.46c.44.09.61-.19.61-.43V22.63c-2.5.53-3-1.06-3-1.06a2.37,2.37,0,0,0-1-1.32c-.81-.55.06-.54.06-.54a1.91,1.91,0,0,1,1.38.92,1.91,1.91,0,0,0,2.6.76,1.89,1.89,0,0,1,.57-1.2c-2-.23-4.08-1-4.08-4.43a3.48,3.48,0,0,1,.92-2.4A3.23,3.23,0,0,1,11.32,11s.75-.25,2.46.91a8.55,8.55,0,0,1,4.49,0C20,10.74,20.71,11,20.71,11a3.19,3.19,0,0,1,.08,2.37,3.39,3.39,0,0,1,.92,2.4c0,3.45-2.09,4.2-4.08,4.43a2.12,2.12,0,0,1,.6,1.66v2.45c0,.24.16.52.62.43A9,9,0,0,0,16,7.26Z"/>
<path fill="#fff" d="M10.43,20.13s-.08.05-.15,0-.1-.09-.08-.13.09-.06.15,0S10.45,20.08,10.43,20.13Z"/>
<path fill="#fff" d="M10.8,20.53s-.13,0-.19,0a.15.15,0,0,1,0-.19s.12,0,.18,0S10.84,20.49,10.8,20.53Z"/>
<path fill="#fff" d="M11.15,21.05c-.06,0-.15,0-.2-.08a.18.18,0,0,1,0-.22c.06,0,.14,0,.2.08A.16.16,0,0,1,11.15,21.05Z"/>
<path fill="#fff" d="M11.63,21.55c-.05.05-.15,0-.23,0s-.1-.18-.05-.23a.17.17,0,0,1,.23,0C11.66,21.39,11.69,21.49,11.63,21.55Z"/>
<path fill="#fff" d="M12.3,21.84a.18.18,0,0,1-.22.07c-.1,0-.17-.12-.15-.19s.12-.1.23-.07A.17.17,0,0,1,12.3,21.84Z"/>
<path fill="#fff" d="M13,21.89c0,.07-.08.13-.18.13s-.2-.05-.2-.12.08-.14.19-.14a.16.16,0,0,1,.19.13Z"/>
<path fill="#fff" d="M13.72,21.77a.2.2,0,0,1-.17.17c-.11,0-.2,0-.21-.1s.06-.15.16-.17A.18.18,0,0,1,13.72,21.77Z"/>
</svg>