<svg width="24" height="24" viewBox="0 0 24 24" fill="none" xmlns="http://www.w3.org/2000/svg"><mask id="mask0_797_11738" maskUnits="userSpaceOnUse" x="2" y="2" width="21" height="21"><path fill-rule="evenodd" clip-rule="evenodd" d="M2 2.00024H22.4996V22.4997H2V2.00024Z" fill="white"></path></mask><g mask="url(#mask0_797_11738)"><path fill-rule="evenodd" clip-rule="evenodd" d="M4.35908 5.06079C4.36108 5.06079 4.31108 5.11279 4.24808 5.17479C4.00608 5.40979 3.50508 5.89879 3.50008 6.92179C3.49208 8.35279 4.43308 11.0098 8.96408 15.5398C13.4741 20.0478 16.1271 20.9998 17.5611 20.9998H17.5821C18.6051 20.9948 19.0931 20.4928 19.3291 20.2518C19.4011 20.1778 19.4591 20.1238 19.5001 20.0898C20.4961 19.0878 21.0061 18.3418 21.0011 17.8638C20.9941 17.3758 20.3871 16.7988 19.5481 16.0008C19.2811 15.7468 18.9911 15.4708 18.6851 15.1648C17.8921 14.3738 17.4991 14.5088 16.6351 14.8128C15.4401 15.2318 13.8001 15.8018 11.2521 13.2528C8.70008 10.7028 9.27108 9.06479 9.68908 7.86979C9.99108 7.00579 10.1291 6.61179 9.33508 5.81779C9.02408 5.50779 8.74508 5.21379 8.48808 4.94379C7.69508 4.10979 7.12308 3.50679 6.63808 3.49979H6.63008C6.15108 3.49979 5.40708 4.01179 4.35408 5.06479C4.35708 5.06179 4.35808 5.06079 4.35908 5.06079ZM17.5621 22.4998C15.0701 22.4998 11.8211 20.5158 7.90408 16.6008C3.97208 12.6698 1.98508 9.41079 2.00008 6.91379C2.00908 5.26379 2.87408 4.41879 3.19908 4.10179C3.21608 4.08079 3.27408 4.02379 3.29408 4.00379C4.72808 2.56879 5.69508 1.98879 6.65708 1.99979C7.77408 2.01479 8.56908 2.85079 9.57508 3.90979C9.82408 4.17179 10.0941 4.45679 10.3951 4.75679C11.8551 6.21679 11.4391 7.40779 11.1051 8.36379C10.7411 9.40679 10.4261 10.3068 12.3121 12.1928C14.2001 14.0788 15.1001 13.7638 16.1391 13.3968C17.0961 13.0628 18.2841 12.6448 19.7461 14.1048C20.0421 14.4008 20.3231 14.6678 20.5821 14.9148C21.6461 15.9258 22.4861 16.7248 22.5001 17.8448C22.5121 18.7998 21.9321 19.7728 20.5001 21.2058L19.8661 20.7758L20.4021 21.2998C20.0851 21.6248 19.2411 22.4908 17.5901 22.4998H17.5621Z" fill="#232321" class="duration-500"></path></g></svg>