<svg id="a" xmlns="http://www.w3.org/2000/svg" viewBox="0 0 32 32"><circle cx="16" cy="16" r="16" fill="#4ea4f6"/><g id="b"><g id="c"><path d="M7.04,15.66s7.53-3.09,10.14-4.18c1-.44,4.4-1.83,4.4-1.83,0,0,1.57-.61,1.44,.87-.04,.61-.39,2.74-.74,5.05-.52,3.26-1.09,6.83-1.09,6.83,0,0-.09,1-.83,1.18s-1.96-.61-2.18-.78c-.17-.13-3.26-2.09-4.4-3.05-.3-.26-.65-.78,.04-1.39,1.57-1.44,3.44-3.22,4.57-4.35,.52-.52,1.04-1.74-1.13-.26-3.09,2.13-6.14,4.13-6.14,4.13,0,0-.7,.44-2,.04s-2.83-.91-2.83-.91c0,0-1.04-.65,.74-1.35Z" fill="#fff"/></g></g></svg>